<?xml version="1.0" encoding="UTF-8"?>
<svg version="1.1" xmlns="http://www.w3.org/2000/svg" width="32" height="32">
<path d="M0 0 C1.14984375 -0.00386719 2.2996875 -0.00773438 3.484375 -0.01171875 C4.68578125 -0.00011719 5.8871875 0.01148437 7.125 0.0234375 C8.32640625 0.01183594 9.5278125 0.00023438 10.765625 -0.01171875 C12.49039062 -0.00591797 12.49039062 -0.00591797 14.25 0 C15.83167969 0.00507568 15.83167969 0.00507568 17.4453125 0.01025391 C20.125 0.3984375 20.125 0.3984375 21.96728516 1.55615234 C23.61461838 4.17757294 23.51354594 6.1910385 23.5234375 9.2734375 C23.52923828 10.99820312 23.52923828 10.99820312 23.53515625 12.7578125 C23.52355469 13.95921875 23.51195312 15.160625 23.5 16.3984375 C23.51160156 17.59984375 23.52320313 18.80125 23.53515625 20.0390625 C23.53128906 21.18890625 23.52742188 22.33875 23.5234375 23.5234375 C23.52005371 24.57789062 23.51666992 25.63234375 23.51318359 26.71875 C23.125 29.3984375 23.125 29.3984375 21.96728516 31.24072266 C19.34586456 32.88805588 17.332399 32.78698344 14.25 32.796875 C13.10015625 32.80074219 11.9503125 32.80460937 10.765625 32.80859375 C9.56421875 32.79699219 8.3628125 32.78539062 7.125 32.7734375 C5.92359375 32.78503906 4.7221875 32.79664063 3.484375 32.80859375 C1.75960938 32.80279297 1.75960938 32.80279297 0 32.796875 C-1.05445313 32.79349121 -2.10890625 32.79010742 -3.1953125 32.78662109 C-5.875 32.3984375 -5.875 32.3984375 -7.71728516 31.24072266 C-9.36461838 28.61930206 -9.26354594 26.6058365 -9.2734375 23.5234375 C-9.27730469 22.37359375 -9.28117188 21.22375 -9.28515625 20.0390625 C-9.27355469 18.83765625 -9.26195312 17.63625 -9.25 16.3984375 C-9.26160156 15.19703125 -9.27320313 13.995625 -9.28515625 12.7578125 C-9.28128906 11.60796875 -9.27742187 10.458125 -9.2734375 9.2734375 C-9.27005371 8.21898437 -9.26666992 7.16453125 -9.26318359 6.078125 C-8.875 3.3984375 -8.875 3.3984375 -7.71728516 1.55615234 C-5.09586456 -0.09118088 -3.082399 0.00989156 0 0 Z " fill="#FEF9E8" transform="translate(8.875,-0.3984375)"/>
<path d="M0 0 C1.32 0 2.64 0 4 0 C4.08692074 4.27070558 4.14036515 8.54118458 4.1875 12.8125 C4.21263672 14.02744141 4.23777344 15.24238281 4.26367188 16.49414062 C4.27333984 17.65751953 4.28300781 18.82089844 4.29296875 20.01953125 C4.3086792 21.09307861 4.32438965 22.16662598 4.34057617 23.27270508 C4 26 4 26 2.84887695 27.84887695 C0.22234111 29.48417558 -1.79395427 29.38855028 -4.875 29.3984375 C-6.02484375 29.40230469 -7.1746875 29.40617187 -8.359375 29.41015625 C-9.56078125 29.39855469 -10.7621875 29.38695313 -12 29.375 C-13.20140625 29.38660156 -14.4028125 29.39820312 -15.640625 29.41015625 C-17.36539062 29.40435547 -17.36539062 29.40435547 -19.125 29.3984375 C-20.17945313 29.39505371 -21.23390625 29.39166992 -22.3203125 29.38818359 C-25 29 -25 29 -26.84887695 27.69848633 C-28.78365912 24.84370806 -28.30830885 21.63009692 -28.1875 18.3125 C-28.17396484 17.61060547 -28.16042969 16.90871094 -28.14648438 16.18554688 C-28.11120182 14.45670171 -28.05739583 12.72825235 -28 11 C-26.02 11 -24.04 11 -22 11 C-22 13.97 -22 16.94 -22 20 C-20.04235617 20.19456705 -18.08384679 20.38044247 -16.125 20.5625 C-15.03445313 20.66691406 -13.94390625 20.77132813 -12.8203125 20.87890625 C-10.04847977 21.22639404 -10.04847977 21.22639404 -8 20 C-6.00039988 19.960008 -3.99952758 19.95653201 -2 20 C-2.02320312 18.80761719 -2.04640625 17.61523438 -2.0703125 16.38671875 C-2.08907178 14.82031876 -2.10727181 13.253912 -2.125 11.6875 C-2.14175781 10.90181641 -2.15851562 10.11613281 -2.17578125 9.30664062 C-2.18222656 8.54931641 -2.18867188 7.79199219 -2.1953125 7.01171875 C-2.20578613 6.31522217 -2.21625977 5.61872559 -2.22705078 4.90112305 C-2 3 -2 3 0 0 Z " fill="#F33B13" transform="translate(28,3)"/>
<path d="M0 0 C1.15435547 -0.00386719 2.30871094 -0.00773438 3.49804688 -0.01171875 C5.30692383 0.00568359 5.30692383 0.00568359 7.15234375 0.0234375 C8.36212891 0.01183594 9.57191406 0.00023438 10.81835938 -0.01171875 C11.97142578 -0.00785156 13.12449219 -0.00398437 14.3125 0 C15.37218994 0.00338379 16.43187988 0.00676758 17.52368164 0.01025391 C18.37051514 0.13835449 19.21734863 0.26645508 20.08984375 0.3984375 C20.74984375 1.3884375 21.40984375 2.3784375 22.08984375 3.3984375 C21.09984375 3.7284375 20.10984375 4.0584375 19.08984375 4.3984375 C18.09984375 5.8834375 18.09984375 5.8834375 17.08984375 7.3984375 C10.49148601 8.69042363 3.66936963 8.77554757 -2.91015625 7.3984375 C-2.91015625 9.7084375 -2.91015625 12.0184375 -2.91015625 14.3984375 C-4.89015625 14.3984375 -6.87015625 14.3984375 -8.91015625 14.3984375 C-8.99129731 12.62836036 -9.0494113 10.85721652 -9.09765625 9.0859375 C-9.13246094 8.09980469 -9.16726563 7.11367187 -9.203125 6.09765625 C-8.91015625 3.3984375 -8.91015625 3.3984375 -7.76123047 1.75463867 C-5.14380396 -0.16303533 -3.2225772 0.01027935 0 0 Z " fill="#FCE22D" transform="translate(8.91015625,-0.3984375)"/>
<path d="M0 0 C1.98 0 3.96 0 6 0 C6 2.97 6 5.94 6 9 C15.03378934 10.07531017 15.03378934 10.07531017 24 9 C22.19505958 13.39954228 19.69357524 14.86210618 15.5859375 17.015625 C11.46394917 18.58472026 7.32234856 18.93624879 3 18 C1.22265625 16.94921875 1.22265625 16.94921875 0 15 C-0.2172101 12.35003674 -0.28351554 9.94923442 -0.1875 7.3125 C-0.17396484 6.61060547 -0.16042969 5.90871094 -0.14648438 5.18554688 C-0.11120182 3.45670171 -0.05739583 1.72825235 0 0 Z " fill="#F56A1D" transform="translate(0,14)"/>
<path d="M0 0 C2.31 0.33 4.62 0.66 7 1 C7 5.29 7 9.58 7 14 C4.69 13.34 2.38 12.68 0 12 C0 8.04 0 4.08 0 0 Z " fill="#F9B729" transform="translate(8,9)"/>
<path d="M0 0 C0 3.96 0 7.92 0 12 C-2.31 12.33 -4.62 12.66 -7 13 C-7.08086147 11.20906809 -7.13912702 9.41710372 -7.1875 7.625 C-7.22230469 6.62726562 -7.25710937 5.62953125 -7.29296875 4.6015625 C-7.14794922 3.31378906 -7.14794922 3.31378906 -7 2 C-4 0 -4 0 0 0 Z " fill="#FAAE3E" transform="translate(24,9)"/>
<path d="M0 0 C1.98 0 3.96 0 6 0 C6 2.97 6 5.94 6 9 C7.65 9 9.3 9 11 9 C11 9.33 11 9.66 11 10 C9.93458984 10.07347656 9.93458984 10.07347656 8.84765625 10.1484375 C7.92855469 10.22320312 7.00945313 10.29796875 6.0625 10.375 C5.14597656 10.44460937 4.22945313 10.51421875 3.28515625 10.5859375 C2.53105469 10.72257812 1.77695312 10.85921875 1 11 C0.67 11.66 0.34 12.32 0 13 C0 8.71 0 4.42 0 0 Z " fill="#F7971E" transform="translate(0,14)"/>
<path d="M0 0 C1.32 0 2.64 0 4 0 C4.92017937 8.77578475 4.92017937 8.77578475 2.6640625 11.77734375 C1 13.125 1 13.125 -2 15 C-2.05406122 13.06280622 -2.09282025 11.12518079 -2.125 9.1875 C-2.14820312 8.10855469 -2.17140625 7.02960937 -2.1953125 5.91796875 C-2 3 -2 3 0 0 Z " fill="#F77F1B" transform="translate(28,3)"/>
<path d="M0 0 C0.33 0 0.66 0 1 0 C1 4.95 1 9.9 1 15 C2.65 14.67 4.3 14.34 6 14 C6.804375 14.165 7.60875 14.33 8.4375 14.5 C11.52532486 15.10250241 13.92564819 14.54655143 17 14 C17.66 14.33 18.32 14.66 19 15 C19 10.05 19 5.1 19 0 C19.33 0 19.66 0 20 0 C20 5.28 20 10.56 20 16 C14.47207874 17.64867827 10.75713665 18.19487742 5 17 C3.35 16.67 1.7 16.34 0 16 C0 10.72 0 5.44 0 0 Z " fill="#FDE0C2" transform="translate(6,7)"/>
<path d="M0 0 C1.32 0 2.64 0 4 0 C2.19419268 4.47152289 -0.4667855 5.83952485 -4.6015625 8.02734375 C-7.97877528 9.39693004 -10.40370042 9.38258506 -14 9 C-10.15792466 4.4593655 -7.80909176 3.65763303 -2 3 C-1.34 2.01 -0.68 1.02 0 0 Z " fill="#F45419" transform="translate(20,23)"/>
<path d="M0 0 C0.36693548 6.48252688 0.36693548 6.48252688 -1.21875 8.71875 C-3.52088476 10.3746715 -4.88218083 10.3094704 -7.6875 10.1875 C-8.89986328 10.14689453 -8.89986328 10.14689453 -10.13671875 10.10546875 C-10.75160156 10.07066406 -11.36648437 10.03585938 -12 10 C-2.28571429 0 -2.28571429 0 0 0 Z " fill="#F22B11" transform="translate(32,22)"/>
<path d="M0 0 C0 2.31 0 4.62 0 7 C-1.98 7.33 -3.96 7.66 -6 8 C-6 6.02 -6 4.04 -6 2 C-1.125 0 -1.125 0 0 0 Z " fill="#F78025" transform="translate(23,14)"/>
<path d="M0 0 C2.4375 0.5 2.4375 0.5 4.4375 3.5 C3.4475 3.83 2.4575 4.16 1.4375 4.5 C-0.22960346 5.99985609 -0.22960346 5.99985609 -1.5625 7.5 C-2.8825 6.84 -4.2025 6.18 -5.5625 5.5 C-3.25134409 0.6344086 -3.25134409 0.6344086 0 0 Z " fill="#FABA24" transform="translate(26.5625,-0.5)"/>
<path d="M0 0 C0.375 2.1875 0.375 2.1875 0 5 C-1.83961648 6.99022836 -3.79186148 8.38989899 -6 10 C-6.3125 7.8125 -6.3125 7.8125 -6 5 C-1.66666667 0 -1.66666667 0 0 0 Z " fill="#F45015" transform="translate(32,13)"/>
<path d="M0 0 C1.98 0 3.96 0 6 0 C6 1.65 6 3.3 6 5 C4.02 5 2.04 5 0 5 C0 3.35 0 1.7 0 0 Z " fill="#F9B61F" transform="translate(0,14)"/>
<path d="M0 0 C-8.02058824 4.15882353 -8.02058824 4.15882353 -11.3125 3.625 C-11.869375 3.41875 -12.42625 3.2125 -13 3 C-12 1 -12 1 -10.4375 0.375 C-6.93601819 -0.16368951 -3.54193167 -0.05903219 0 0 Z " fill="#F57B19" transform="translate(13,24)"/>
<path d="M0 0 C2.31 0.33 4.62 0.66 7 1 C6.67 2.32 6.34 3.64 6 5 C5.67 4.34 5.34 3.68 5 3 C4.01 3 3.02 3 2 3 C1.67 5.97 1.34 8.94 1 12 C0.67 12 0.34 12 0 12 C0 8.04 0 4.08 0 0 Z " fill="#FBD65A" transform="translate(8,9)"/>
<path d="M0 0 C0 1.65 0 3.3 0 5 C-1.65 4.67 -3.3 4.34 -5 4 C-5 3.01 -5 2.02 -5 1 C-2 0 -2 0 0 0 Z " fill="#F89821" transform="translate(14,17)"/>
<path d="M0 0 C0.99 0 1.98 0 3 0 C1.75023244 3.65316671 1.32901247 4.78065836 -2 7 C-1.125 1.125 -1.125 1.125 0 0 Z " fill="#F99E1E" transform="translate(28,3)"/>
<path d="M0 0 C0.33 0.99 0.66 1.98 1 3 C-1.97 5.475 -1.97 5.475 -5 8 C-4.45773019 4.20411134 -2.79872437 2.52788007 0 0 Z " fill="#F7671B" transform="translate(31,10)"/>
<path d="M0 0 C2.6875 -0.3125 2.6875 -0.3125 5 0 C2.6875 2.5 2.6875 2.5 0 5 C-0.99 5 -1.98 5 -3 5 C-1.8125 2.5 -1.8125 2.5 0 0 Z " fill="#FAD125" transform="translate(24,0)"/>
</svg>
